<svg xmlns="http://www.w3.org/2000/svg" width="1280" height="720" viewBox="0 0 1280 720">
  <defs>
    <linearGradient id="bg" x1="0" y1="0" x2="1" y2="1">
      <stop offset="0%" stop-color="#0f5132"/>
      <stop offset="100%" stop-color="#022c22"/>
    </linearGradient>
  </defs>
  <rect width="1280" height="720" fill="url(#bg)"/>
  <rect x="40" y="30" width="1200" height="100" rx="18" fill="#00000066" stroke="#ffffff22"/>
  <text x="70" y="85" fill="#a7f3d0" font-size="30" font-family="Arial">Money Clicker HUD: Cash · Cash/sec · Click Power · Total Earned</text>
  <rect x="50" y="150" width="470" height="520" rx="20" fill="#00000055" stroke="#ffffff22"/>
  <circle cx="285" cy="410" r="150" fill="#34d399" stroke="#bbf7d0" stroke-width="8"/>
  <text x="245" y="425" fill="#064e3b" font-size="70" font-weight="bold" font-family="Arial">$</text>
  <rect x="550" y="150" width="470" height="520" rx="20" fill="#00000055" stroke="#ffffff22"/>
  <text x="585" y="190" fill="#e5e7eb" font-size="34" font-family="Arial">Shop</text>
  <rect x="580" y="220" width="410" height="72" rx="12" fill="#ffffff10"/>
  <rect x="580" y="305" width="410" height="72" rx="12" fill="#ffffff10"/>
  <rect x="580" y="390" width="410" height="72" rx="12" fill="#ffffff10"/>
  <rect x="580" y="475" width="410" height="72" rx="12" fill="#ffffff10"/>
  <rect x="1040" y="150" width="190" height="520" rx="20" fill="#00000055" stroke="#ffffff22"/>
  <text x="1070" y="190" fill="#e5e7eb" font-size="26" font-family="Arial">Save</text>
  <rect x="1065" y="220" width="140" height="52" rx="10" fill="#34d399"/>
  <rect x="1065" y="285" width="140" height="52" rx="10" fill="#6ee7b7"/>
  <rect x="1065" y="350" width="140" height="52" rx="10" fill="#ef4444"/>
</svg>
